HIERARCHY
ROOT root
{
	OFFSET	0	13.1	24.9
	CHANNELS 6  Xposition Yposition Zposition Xrotation Yrotation Zrotation
	JOINT spine_1
	{
		OFFSET	0	9.99999	0
		CHANNELS 3  Xrotation Yrotation Zrotation
		JOINT spine_2
		{
			OFFSET	0	112	-10
			CHANNELS 3  Xrotation Yrotation Zrotation
			JOINT spine_3
			{
				OFFSET	0	206.5	19.3
				CHANNELS 3  Xrotation Yrotation Zrotation
				JOINT spine_4
				{
					OFFSET	0	110.4	14.6
					CHANNELS 3  Xrotation Yrotation Zrotation
					JOINT neck_1
					{
						OFFSET	0	71.8	-50.3
						CHANNELS 3  Xrotation Yrotation Zrotation
						JOINT neck_2
						{
							OFFSET	0	86.2	-25.8
							CHANNELS 3  Xrotation Yrotation Zrotation
							JOINT head_ee
							{
								OFFSET	0	179.8	-8.7
								CHANNELS 3  Xrotation Yrotation Zrotation
								End Site
								{
									OFFSET	1	0	0
								}
							}
						}
					}
					JOINT left_clavicle
					{
						OFFSET	-43.2	22.4	-70.8
						CHANNELS 3  Xrotation Yrotation Zrotation
						JOINT left_shoulder
						{
							OFFSET	-93.9	-5.79999	48.7
							CHANNELS 3  Xrotation Yrotation Zrotation
							JOINT left_elbow
							{
								OFFSET	-291.4	-30.8	15.2
								CHANNELS 3  Xrotation Yrotation Zrotation
								JOINT left_lowarm_twist
								{
									OFFSET	-110.7	-3.89999	13.6
									CHANNELS 3  Xrotation Yrotation Zrotation
									JOINT left_hand
									{
										OFFSET	-110.7	-3.89999	13.6
										CHANNELS 3  Xrotation Yrotation Zrotation
										JOINT left_ee
										{
											OFFSET	-80.8	-5.10001	12.1
											CHANNELS 3  Xrotation Yrotation Zrotation
											End Site
											{
												OFFSET	1	0	0
											}
										}
									}
								}
							}
						}
					}
					JOINT right_clavicle
					{
						OFFSET	43.2	22.4	-70.8
						CHANNELS 3  Xrotation Yrotation Zrotation
						JOINT right_shoulder
						{
							OFFSET	93.9	-5.79999	48.7
							CHANNELS 3  Xrotation Yrotation Zrotation
							JOINT right_elbow
							{
								OFFSET	291.4	-30.8	15.2
								CHANNELS 3  Xrotation Yrotation Zrotation
								JOINT right_lowarm_twist
								{
									OFFSET	110.7	-3.89999	13.6
									CHANNELS 3  Xrotation Yrotation Zrotation
									JOINT right_hand
									{
										OFFSET	110.7	-3.89999	13.6
										CHANNELS 3  Xrotation Yrotation Zrotation
										JOINT right_ee
										{
											OFFSET	80.8	-5.10001	12.1
											CHANNELS 3  Xrotation Yrotation Zrotation
											End Site
											{
												OFFSET	1	0	0
											}
										}
									}
								}
							}
						}
					}
				}
			}
		}
	}
	JOINT left_hip
	{
		OFFSET	-82.8	-127.5	0.300001
		CHANNELS 3  Xrotation Yrotation Zrotation
		JOINT left_knee
		{
			OFFSET	-28.2	-396.7	2.2
			CHANNELS 3  Xrotation Yrotation Zrotation
			JOINT left_ankle
			{
				OFFSET	-11.7	-411.3	35.4
				CHANNELS 3  Xrotation Yrotation Zrotation
				JOINT left_toes
				{
					OFFSET	0	-60	-88.6
					CHANNELS 3  Xrotation Yrotation Zrotation
					JOINT left_foot_ee
					{
						OFFSET	-22.5	-16.5	-42.2
						CHANNELS 3  Xrotation Yrotation Zrotation
						End Site
						{
							OFFSET	1	0	0
						}
					}
				}
			}
		}
	}
	JOINT right_hip
	{
		OFFSET	82.8	-127.5	0.300001
		CHANNELS 3  Xrotation Yrotation Zrotation
		JOINT right_knee
		{
			OFFSET	28.2	-396.7	2.2
			CHANNELS 3  Xrotation Yrotation Zrotation
			JOINT right_ankle
			{
				OFFSET	11.7	-411.3	35.4
				CHANNELS 3  Xrotation Yrotation Zrotation
				JOINT right_toes
				{
					OFFSET	0	-60	-88.6
					CHANNELS 3  Xrotation Yrotation Zrotation
					JOINT right_foot_ee
					{
						OFFSET	22.5	-16.5	-42.2
						CHANNELS 3  Xrotation Yrotation Zrotation
						End Site
						{
							OFFSET	1	0	0
						}
					}
				}
			}
		}
	}
}
MOTION
Frames: 13
Frame Time: 0.02
573.262 611.514 -1532.59 -160.532 -67.2459 -166.238 1.20525 0.0951176 0.378527 1.20533 0.0708383 0.383813 1.20582 -0.00319937 0.390282 1.20562 0.0584781 0.385889 -5.3738 0.541183 4.21834 -5.32015 -2.15333 4.3811 -0.0 0.0 -0.0 9.53603 -22.1062 18.1998 -1.29425 -10.8811 52.6633 2.39067 -49.8147 1.11021 -5.19878 -0.211927 0.629632 3.84425 -27.0733 13.2975 -0.0 0.0 -0.0 9.30269 -7.25966 -17.7996 -30.745 6.50147 -59.6109 0.683971 18.7174 -0.112726 18.5209 -0.276624 2.33942 0.0831476 -11.1955 -5.15637 0.0 0.0 0.0 0.386524 -25.3783 12.0881 -19.874 0.297117 3.02009 -14.1701 27.8815 2.24697 -18.1514 0.0 0.0 -0.0 0.0 -0.0 41.1909 -14.1578 5.48188 -9.61219 -0.274851 -1.44784 13.4254 -15.758 1.90358 3.98292 -0.0 -0.0 0.0 0.0 0.0 
593.094 611.585 -1522.09 -159.483 -67.2491 -164.817 1.57297 0.233439 0.138572 1.57296 0.224148 0.153145 1.57357 0.19229 0.191626 1.57358 0.22014 0.158852 -4.11983 0.101999 1.99816 -4.10707 -1.34052 2.07088 -0.0 0.0 -0.0 10.7418 -20.5677 21.0291 -0.497599 -11.3468 53.3521 1.95752 -44.1139 0.793219 -7.49056 -0.32335 0.900666 4.5835 -26.5986 18.4548 -0.0 0.0 -0.0 9.34814 -6.35543 -17.9562 -34.6157 8.14826 -59.6512 0.796031 21.5207 -0.151283 19.3107 -0.271498 2.44017 -0.565335 -16.5979 -3.29308 0.0 0.0 0.0 0.193993 -26.1915 11.9867 -21.2561 0.278595 3.23134 -19.1059 28.2025 3.04587 -12.1142 0.0 0.0 -0.0 0.0 -0.0 41.2126 -13.2645 5.26431 -11.9657 -0.304849 -1.80768 17.061 -17.9916 2.40097 7.96102 -0.0 -0.0 0.0 0.0 0.0 
614.487 619.195 -1507.55 -154.858 -67.8296 -160.755 2.15103 0.148679 -0.0633776 2.15102 0.152411 -0.0537883 2.15087 0.159427 -0.0265557 2.1509 0.153233 -0.051401 -7.59966 1.70579 0.383679 -7.59994 2.90372 0.741948 -0.0 0.0 -0.0 9.36619 -17.6294 18.1486 -0.562852 -13.9411 57.5251 1.61808 -38.7109 0.568434 -8.97725 -0.401405 1.07405 4.32275 -28.3237 15.7004 -0.0 0.0 -0.0 10.148 -9.70739 -19.1682 -36.807 7.60929 -56.1934 0.76557 20.7687 -0.140295 16.7649 -0.283042 2.11524 0.442211 -9.69177 -6.86907 0.0 0.0 0.0 0.60738 -23.5823 10.2804 -22.1348 0.264171 3.3654 -21.5358 20.4689 3.30859 -6.62156 0.0 0.0 -0.0 0.0 -0.0 40.0407 -12.0188 5.21388 -11.3914 -0.298894 -1.71977 16.8535 -20.7459 2.39801 12.389 -0.0 -0.0 0.0 0.0 0.0 
633.909 618.493 -1494.67 -152.808 -69.1509 -158.483 2.46762 -0.0137968 -0.276257 2.46766 0.00380999 -0.276575 2.46763 0.0501899 -0.272009 2.46753 0.00660138 -0.276522 -7.47183 1.08054 0.437755 -7.47157 1.69837 0.661981 -0.0 0.0 -0.0 9.67683 -15.2857 18.9633 -0.842799 -13.5358 58.5481 1.41052 -34.9411 0.443958 -8.56957 -0.379552 1.0267 3.74867 -28.5382 11.8543 -0.0 0.0 -0.0 10.1387 -4.29203 -19.6648 -37.5635 5.99052 -59.6652 0.769814 20.874 -0.141803 15.5825 -0.283491 1.96422 -0.0840395 -16.2267 -6.10201 0.0 0.0 0.0 3.15287 -21.1271 10.4784 -27.2794 0.138618 4.14466 -18.8449 20.9042 2.89708 -3.60397 0.0 0.0 -0.0 0.0 -0.0 40.0845 -11.6715 5.54999 -15.0445 -0.32174 -2.27972 22.4676 -22.3354 3.14487 11.2195 -0.0 -0.0 0.0 0.0 0.0 
655.152 623.804 -1489.16 -152.292 -68.7266 -157.51 2.83912 0.0197818 -0.488963 2.83925 0.0508554 -0.486713 2.83878 0.128795 -0.47211 2.83848 0.0526184 -0.486526 -6.86293 1.15171 -2.15746 -6.84749 3.70058 -1.9299 -0.0 0.0 -0.0 9.19974 -9.88306 18.0945 0.264281 -15.8616 62.169 1.06595 -27.8351 0.264148 -11.2967 -0.53212 1.34041 3.01495 -28.6072 7.11972 -0.0 0.0 -0.0 10.7603 -0.833718 -21.1819 -39.4651 5.46814 -60.0787 0.7027 19.1929 -0.118809 19.7951 -0.267667 2.50193 -0.445723 -16.8268 -4.11972 0.0 0.0 0.0 6.21303 -22.5908 11.3366 -31.9439 -0.0352866 4.83919 -23.9186 16.6075 3.63278 -1.89546 0.0 0.0 -0.0 0.0 -0.0 38.7747 -11.6768 5.0563 -14.6622 -0.321023 -2.22107 22.2853 -21.9439 3.11611 14.9713 -0.0 -0.0 0.0 0.0 0.0 
671.836 618.062 -1470.66 -145.449 -70.9882 -149.894 3.25948 -0.30632 -0.405203 3.25953 -0.279915 -0.423873 3.26159 -0.211208 -0.461965 3.26141 -0.281516 -0.422812 -7.36953 -0.545217 -2.6891 -7.34867 0.913787 -2.79317 -0.0 0.0 -0.0 9.05007 -4.47617 17.8032 0.320981 -17.2125 63.5353 1.0218 -26.8466 0.243872 -17.7422 -0.950864 2.0507 2.79478 -28.681 5.68067 -0.0 0.0 -0.0 10.4599 3.53782 -20.7657 -39.717 4.43974 -65.7237 0.730443 19.8921 -0.12809 19.6296 -0.269035 2.48083 -0.747769 -11.3345 0.0733896 0.0 0.0 0.0 5.81287 -21.9877 8.00416 -34.6017 -0.159514 5.22801 -23.1737 11.9952 3.49165 3.77168 -0.0 -0.0 -0.0 0.0 -0.0 37.4287 -11.2809 4.42606 -14.7794 -0.321284 -2.23904 28.7564 -25.2324 3.96775 19.7627 -0.0 -0.0 0.0 0.0 0.0 
689.818 621.679 -1456.22 -144.426 -71.9823 -148.809 3.47635 -0.192163 -0.24896 3.47637 -0.175932 -0.260683 3.47717 -0.134699 -0.28419 3.4771 -0.177891 -0.25935 -7.71891 -0.387083 -2.43486 -7.70178 1.01155 -2.50151 -0.0 0.0 -0.0 9.17115 -0.148303 17.9599 -2.211 -19.4742 63.6261 0.856873 -22.9995 0.174332 -23.4713 -1.38825 2.63955 2.82074 -28.8033 5.78241 -0.0 0.0 -0.0 10.6267 5.04176 -21.1674 -38.7356 4.70216 -67.3661 0.645736 17.7385 -0.100765 20.4196 -0.261959 2.58148 0.278579 -7.25676 -4.83814 0.0 0.0 0.0 9.49673 -17.7645 6.78975 -42.2038 -0.61289 6.304 -17.5311 12.5752 2.6385 0.351221 -0.0 -0.0 -0.0 0.0 -0.0 36.7995 -8.29286 4.07537 -17.7932 -0.315378 -2.70135 33.125 -26.9704 4.51579 18.3847 -0.0 -0.0 0.0 0.0 0.0 
711.834 627.586 -1450.45 -144.502 -73.5668 -149.459 3.37768 -0.305639 -0.0411258 3.37763 -0.302402 -0.0604912 3.37797 -0.289672 -0.105812 3.37809 -0.302748 -0.0587358 -11.0438 -0.303349 -3.02951 -11.0184 1.42533 -3.01185 -0.0 0.0 -0.0 7.71904 4.08757 14.9361 1.02611 -19.9576 68.0011 0.752818 -20.4516 0.135806 -25.3552 -1.54474 2.82337 1.35509 -17.0912 1.79021 -0.0 0.0 -0.0 11.1267 8.98186 -22.3188 -34.8876 0.0299888 -69.0882 0.371728 10.4339 -0.0339411 21.4756 -0.250333 2.71587 0.932882 1.54436 -5.60974 0.0 0.0 0.0 12.9424 -14.9622 7.35897 -47.5241 -1.01344 7.01755 -22.5295 14.1157 3.4041 11.834 -0.0 -0.0 -0.0 0.0 -0.0 35.3169 -12.6715 6.3566 -18.9132 -0.306988 -2.87299 32.9735 -24.1991 4.42186 21.7701 -0.0 -0.0 0.0 0.0 0.0 
723.173 624.573 -1437.33 -142.311 -74.4933 -147.631 3.34403 -0.185058 0.343936 3.34407 -0.206568 0.331464 3.34285 -0.254797 0.296002 3.34279 -0.204851 0.332528 -11.2626 -0.631175 -3.11235 -11.2354 0.848633 -3.17626 -0.0 0.0 -0.0 6.39725 5.94093 12.3905 -2.59033 -24.0842 67.946 0.871723 -23.3557 0.180177 -29.9837 -1.95426 3.25252 2.44393 -17.1367 9.06898 -0.0 0.0 -0.0 11.4151 11.7693 -22.9485 -32.1746 -2.24058 -68.4831 0.435245 12.1673 -0.0463891 23.5531 -0.220242 2.97952 2.48977 4.34448 -15.1035 0.0 0.0 0.0 16.1492 -16.3182 8.22456 -52.7509 -1.4701 7.68009 -19.1415 14.2871 2.89037 12.8564 -0.0 -0.0 -0.0 0.0 -0.0 32.7741 -11.0837 5.40441 -15.7897 -0.322014 -2.39405 39.5264 -24.2672 5.09911 19.2001 -0.0 -0.0 0.0 0.0 0.0 
742.219 627.99 -1411.44 -138.223 -75.4343 -144.192 3.85879 -0.119717 1.08893 3.85943 -0.188762 1.07911 3.85552 -0.342194 1.04068 3.85405 -0.173554 1.08166 -11.7705 -1.15557 -1.41668 -11.7658 -1.27155 -1.68353 -0.0 0.0 -0.0 6.49164 10.2026 12.4682 -2.72438 -22.6912 66.1854 0.684477 -18.7303 0.112888 -31.613 -2.10653 3.39559 0.970899 -12.6681 1.1544 -0.0 0.0 -0.0 12.966 15.5544 -26.405 -25.5729 -6.51079 -67.4897 0.218232 6.17018 -0.0117621 23.4865 -0.221355 2.97108 2.26513 8.68709 -11.6829 0.0 0.0 0.0 17.194 -11.0511 4.11802 -53.3773 -1.52886 7.75666 -22.7933 14.5766 3.44681 18.2474 -0.0 -0.0 -0.0 0.0 -0.0 29.6176 -8.4359 4.00096 -13.8281 -0.318098 -2.09312 42.5673 -25.0675 5.4099 21.3673 -0.0 -0.0 0.0 0.0 0.0 
751.111 634.009 -1402.8 -140.935 -74.3274 -146.808 3.72697 0.0215701 1.0813 3.72762 -0.0472755 1.08048 3.72639 -0.204751 1.06196 3.72482 -0.0344752 1.08097 -12.9742 -1.3269 -2.31638 -12.9598 -1.06873 -2.60591 -0.0 0.0 -0.0 5.2404 8.3301 10.2633 -5.20188 -23.3318 66.5454 0.830578 -22.3642 0.164192 -25.8921 -1.59043 2.87481 1.85834 -11.3465 7.73161 -0.0 0.0 -0.0 13.6097 17.9904 -27.8008 -30.0588 2.73976 -66.2407 0.489615 13.6335 -0.0585286 26.7952 -0.154236 3.38836 3.0442 9.51188 -16.7377 0.0 0.0 0.0 22.2786 -13.2947 4.58978 -58.5377 -2.04417 8.36237 -20.7762 19.3409 3.17881 23.7485 -0.0 -0.0 -0.0 0.0 -0.0 28.6103 -12.2263 3.86673 -11.7571 -0.302788 -1.77575 41.4665 -17.4434 5.10549 9.56375 -0.0 -0.0 0.0 0.0 0.0 
769.907 633.12 -1391.26 -143.002 -73.1054 -148.705 3.77231 0.240732 1.26192 3.77318 0.159952 1.27468 3.77629 -0.0269862 1.28439 3.77404 0.176181 1.27254 -12.7854 -1.46429 -3.19606 -12.757 -0.765671 -3.48571 -0.0 0.0 -0.0 4.34679 12.02 8.73074 -5.44274 -24.4975 65.9237 0.723683 -19.7223 0.125799 -33.3742 -2.27563 3.54533 2.96733 -11.659 15.216 -0.0 0.0 -0.0 13.5096 23.3853 -27.1464 -25.7208 -4.0545 -68.5908 0.538614 14.9394 -0.0706209 23.7321 -0.217201 3.00219 3.41289 18.2004 -15.1386 0.0 0.0 0.0 27.8714 -16.7467 6.27355 -65.3179 -2.80075 9.08416 -20.9615 21.522 3.23282 25.66 -0.0 -0.0 -0.0 0.0 -0.0 23.3487 -5.35889 1.17839 -3.32146 -0.122434 -0.494964 41.9417 -23.636 5.30574 18.3682 -0.0 -0.0 0.0 0.0 0.0 
779.941 633.331 -1392.06 -142.225 -72.5459 -148.321 3.97308 0.130358 1.38428 3.97414 0.042017 1.38977 3.97455 -0.15565 1.38167 3.97189 0.0644896 1.38891 -13.5022 -1.98042 -3.75898 -13.4638 -1.44404 -4.18299 -0.0 0.0 -0.0 3.44381 12.014 7.20189 -8.48369 -25.9798 66.1156 0.772464 -20.9396 0.142749 -28.9406 -1.85895 3.15869 3.36382 -10.2835 18.6432 -0.0 0.0 -0.0 13.4686 26.4604 -26.7069 -18.3531 -7.27739 -66.214 0.532194 14.7692 -0.0689751 25.6956 -0.179215 3.25012 2.75071 18.4314 -10.5214 0.0 0.0 0.0 32.6906 -14.2413 5.71992 -68.7354 -3.21331 9.41309 -20.0543 23.463 3.11779 27.5762 -0.0 -0.0 -0.0 0.0 -0.0 24.9846 -7.13408 2.16376 -7.36175 -0.232364 -1.10514 41.5144 -19.6702 5.15821 16.6638 -0.0 -0.0 0.0 0.0 0.0 
